<?xml version="1.0" encoding="UTF-8"?>
<svg version="1.1" xmlns="http://www.w3.org/2000/svg" width="473" height="252">
<path d="M0 0 C2.64275496 1.44925272 4.17379963 2.58025504 5.9375 5.0625 C5.61607143 11.38392857 5.61607143 11.38392857 3.9375 13.0625 C4.7625 13.84625 5.5875 14.63 6.4375 15.4375 C8.9375 18.0625 8.9375 18.0625 8.9375 20.0625 C9.94554687 20.29453125 10.95359375 20.5265625 11.9921875 20.765625 C16.9601456 22.18075549 20.74722247 25.10994234 24.86328125 28.13671875 C28.43889296 30.6417077 28.43889296 30.6417077 32.65625 30.57421875 C35.78101861 28.50352448 37.65255679 25.9946296 39.8984375 23.03515625 C44.61784763 18.46944339 49.65714832 17.69610952 55.96484375 17.70117188 C57.18880859 17.7253418 57.18880859 17.7253418 58.4375 17.75 C59.66146484 17.74516602 59.66146484 17.74516602 60.91015625 17.74023438 C72.58920781 17.84333997 72.58920781 17.84333997 76.85546875 21.875 C78.1327961 24.45732245 78.30690995 26.19073657 78.25 29.0625 C78.24613281 29.908125 78.24226562 30.75375 78.23828125 31.625 C77.82953583 34.93743039 76.95635783 37.09697081 74.51953125 39.40625 C65.95825761 45.00037141 55.03070976 47.23856451 44.9375 48.0625 C45.02 49.155625 45.1025 50.24875 45.1875 51.375 C44.9375 55.0625 44.9375 55.0625 43.375 57.0625 C39.96442981 58.46170828 37.49358274 57.78688722 33.9375 57.0625 C33.2775 57.0625 32.6175 57.0625 31.9375 57.0625 C30.33690707 58.68342592 30.33690707 58.68342592 28.6875 60.75 C25.67795531 64.30214603 22.60225465 67.20220369 18.9375 70.0625 C19.46601563 70.75214844 19.99453125 71.44179687 20.5390625 72.15234375 C25.77528626 79.52146947 25.77528626 79.52146947 26.203125 83.5859375 C25.34777907 88.59826464 23.09550729 91.84225847 19.03515625 94.84375 C9.31800747 100.48946773 -3.32594929 100.64035196 -14.03125 97.82421875 C-19.06306589 95.93728779 -24.58799641 93.01150718 -27.0625 88.0625 C-28.125 84.875 -28.125 84.875 -28.0625 81.0625 C-26.72993541 78.55193161 -25.2149 76.34894838 -23.5078125 74.078125 C-21.88609689 72.02634937 -21.88609689 72.02634937 -21.0625 69.0625 C-21.92359375 68.80082031 -22.7846875 68.53914063 -23.671875 68.26953125 C-34.17307005 64.5312026 -43.20164682 57.62589418 -52.08886719 51.07104492 C-57.44036299 47.15505324 -62.90247713 43.51735791 -68.5625 40.0625 C-69.26729492 39.63026123 -69.97208984 39.19802246 -70.69824219 38.75268555 C-72.80167982 37.48771385 -74.92283454 36.26512284 -77.0625 35.0625 C-77.7726123 34.66071533 -78.48272461 34.25893066 -79.21435547 33.8449707 C-87.15658619 29.60849851 -95.65469935 27.01325541 -104.1875 24.25 C-105.73200253 23.74354458 -107.27627538 23.23638818 -108.8203125 22.72851562 C-112.56511231 21.49842152 -116.3128824 20.27782511 -120.0625 19.0625 C-119.4025 18.7325 -118.7425 18.4025 -118.0625 18.0625 C-118.0625 17.4025 -118.0625 16.7425 -118.0625 16.0625 C-100.94380643 12.97552247 -82.35047763 18.95236257 -66.75 25.75 C-61.19180934 28.11930916 -56.07457175 29.46739645 -50.0625 30.0625 C-48.81984375 30.20429687 -47.5771875 30.34609375 -46.296875 30.4921875 C-37.38507019 31.18122268 -30.4167062 29.57317404 -22.25 25.9375 C-21.39607666 25.55940186 -20.54215332 25.18130371 -19.66235352 24.79174805 C-14.40627929 22.25315021 -12.03402645 20.02703572 -9.0625 15.0625 C-8.0725 15.0625 -7.0825 15.0625 -6.0625 15.0625 C-6.5575 13.5775 -6.5575 13.5775 -7.0625 12.0625 C-7.56214299 7.56571309 -7.56987987 5.7390065 -4.8125 2.0625 C-2.0625 0.0625 -2.0625 0.0625 0 0 Z M41.5625 36.1875 C39.77348091 38.80227741 39.77348091 38.80227741 39.9375 41.0625 C45.82898242 40.02890659 51.25042526 38.34147031 56.8125 36.1875 C57.46677979 35.94306152 58.12105957 35.69862305 58.79516602 35.44677734 C62.56933595 33.94180324 64.86706773 32.60523967 66.9375 29.0625 C64.22807607 28.95388167 61.523061 28.87491423 58.8125 28.8125 C58.05195313 28.77898438 57.29140625 28.74546875 56.5078125 28.7109375 C49.64095033 28.59254332 45.80631516 30.60353269 41.5625 36.1875 Z " fill="#000000" transform="translate(221.0625,32.9375)"/>
<path d="M0 0 C3.0625 2.1875 3.0625 2.1875 5 4 C4.49396008 6.16874252 4.00016187 7.99967627 3 10 C-0.45738631 9.57836752 -3.03883384 8.9809638 -6.1875 7.4375 C-11.61494676 5.01195964 -17.62154789 5.09107634 -23.30859375 6.62109375 C-28.75092479 8.93588484 -31.58301232 12.68885112 -34 18 C-36.28696944 25.41444233 -35.37031021 33.07064221 -32 40 C-28.85673445 43.90784366 -25.73534968 46.33385845 -21 48 C-14.63038209 48.60844111 -10.15115224 48.05038408 -4 46 C-3.67 41.71 -3.34 37.42 -3 33 C-6.3 33 -9.6 33 -13 33 C-13 31.02 -13 29.04 -13 27 C-6.73 27 -0.46 27 6 27 C6.10767427 30.77159047 6.18716451 34.5401264 6.25 38.3125 C6.30027344 39.9202832 6.30027344 39.9202832 6.3515625 41.56054688 C6.36445313 42.58857422 6.37734375 43.61660156 6.390625 44.67578125 C6.41157227 45.62364502 6.43251953 46.57150879 6.45410156 47.5480957 C6 50 6 50 4.12182617 51.7734375 C-4.34581492 56.66832058 -15.08937392 57.27384812 -24.54296875 55.53125 C-32.11159972 53.3427302 -37.99808439 49.23793607 -41.9375 42.375 C-46.06261855 34.40443195 -46.36032615 24.67048998 -44.28125 16.00390625 C-41.0726349 7.50366382 -36.55010736 2.85975836 -28.40234375 -1.01953125 C-19.52221268 -4.64377987 -8.60044354 -4.27340126 0 0 Z " fill="#000000" transform="translate(319,182)"/>
<path d="M0 0 C2.91927604 1.3961755 4.72202996 2.72202996 7 5 C7.763125 4.360625 8.52625 3.72125 9.3125 3.0625 C13.89520252 -0.45445775 18.4106994 -0.68791392 24 0 C28.50271823 2.25135911 30.83753992 4.4914637 33 9 C33.34057617 12.50512695 33.34057617 12.50512695 33.29296875 16.48828125 C33.28872391 17.19147995 33.28447906 17.89467865 33.28010559 18.6191864 C33.2634006 20.85069131 33.22576614 23.08127113 33.1875 25.3125 C33.17244248 26.8313671 33.15875594 28.35024846 33.14648438 29.86914062 C33.11352473 33.57972434 33.06180016 37.28977178 33 41 C30.36 41 27.72 41 25 41 C24.98541748 40.17798096 24.97083496 39.35596191 24.95581055 38.5090332 C24.88123667 34.77638677 24.78460488 31.04462541 24.6875 27.3125 C24.65366211 25.37213867 24.65366211 25.37213867 24.61914062 23.39257812 C24.58369141 22.14541016 24.54824219 20.89824219 24.51171875 19.61328125 C24.48553467 18.46641846 24.45935059 17.31955566 24.43237305 16.13793945 C23.95895296 12.70210184 23.04637463 10.77440873 21 8 C19.16666667 6.83333333 19.16666667 6.83333333 17 7 C14.75643706 8.14786941 12.7904233 9.2095767 11 11 C10.84126045 13.21687994 10.74866163 15.43855298 10.68359375 17.66015625 C10.66281265 18.32462265 10.64203156 18.98908905 10.62062073 19.6736908 C10.55506342 21.80318543 10.49621215 23.93280668 10.4375 26.0625 C10.39432061 27.50326847 10.35070651 28.94402399 10.30664062 30.38476562 C10.19937607 33.9230404 10.09812629 37.46145869 10 41 C7.03 41 4.06 41 1 41 C0.98018066 40.10692139 0.96036133 39.21384277 0.93994141 38.29370117 C0.86181302 34.97799292 0.77512029 31.66273838 0.68261719 28.34741211 C0.64435134 26.91292932 0.60949419 25.47835135 0.578125 24.04370117 C0.53242138 21.98061122 0.47443807 19.91817505 0.4140625 17.85546875 C0.3826416 16.61434326 0.3512207 15.37321777 0.31884766 14.09448242 C0.22600791 10.83363899 0.22600791 10.83363899 -2 8 C-3.76033623 6.9751247 -3.76033623 6.9751247 -6 7 C-9.77890761 8.55587513 -9.77890761 8.55587513 -13 11 C-13.15873955 13.21687994 -13.25133837 15.43855298 -13.31640625 17.66015625 C-13.33718735 18.32462265 -13.35796844 18.98908905 -13.37937927 19.6736908 C-13.44493658 21.80318543 -13.50378785 23.93280668 -13.5625 26.0625 C-13.60567939 27.50326847 -13.64929349 28.94402399 -13.69335938 30.38476562 C-13.80062393 33.9230404 -13.90187371 37.46145869 -14 41 C-16.64 41 -19.28 41 -22 41 C-22 27.8 -22 14.6 -22 1 C-19.69 1 -17.38 1 -15 1 C-14.67 1.99 -14.34 2.98 -14 4 C-13.175 3.34 -12.35 2.68 -11.5 2 C-7.54118525 -0.62985094 -4.68553223 -0.52061469 0 0 Z " fill="#000000" transform="translate(146,196)"/>
<path d="M0 0 C28.875 0 28.875 0 35.75 5 C39.03195779 9.37594372 39.82909771 13.57570991 40 19 C39.10892262 24.97113706 36.87972289 29.31309826 32 33 C24.57926731 36.9852083 17.23196478 36.22049906 9 36 C9 42.93 9 49.86 9 57 C6.03 57 3.06 57 0 57 C0 38.19 0 19.38 0 0 Z M9 6 C9 13.92 9 21.84 9 30 C18.66375922 30.17818418 18.66375922 30.17818418 27 27 C29.75319062 24.07473497 30.23799558 21.45981579 30.5 17.5625 C30.39164289 14.14639963 29.82352632 12.17809947 27.6875 9.5 C22.3113451 4.49892568 15.98647542 5.93082698 9 6 Z " fill="#000000" transform="translate(2,180)"/>
<path d="M0 0 C5.37395939 3.6242982 7.44601526 7.50161923 8.6875 13.8125 C9.45224118 21.90265667 8.17670773 28.7230873 3.9375 35.6875 C-0.86584945 40.2239967 -5.83801556 41.14717754 -12.19921875 41.11328125 C-14.3125 40.8125 -14.3125 40.8125 -18.3125 38.8125 C-18.6425 43.7625 -18.9725 48.7125 -19.3125 53.8125 C-22.2825 53.8125 -25.2525 53.8125 -28.3125 53.8125 C-28.3125 35.9925 -28.3125 18.1725 -28.3125 -0.1875 C-26.0025 -0.1875 -23.6925 -0.1875 -21.3125 -0.1875 C-20.6525 0.8025 -19.9925 1.7925 -19.3125 2.8125 C-18.343125 2.1525 -17.37375 1.4925 -16.375 0.8125 C-10.91989901 -2.29050279 -5.80987405 -2.08278504 0 0 Z M-17.3125 7.8125 C-20.67595663 11.17595663 -19.68144293 15.6859949 -19.6875 20.25 C-19.71199219 21.21744141 -19.73648438 22.18488281 -19.76171875 23.18164062 C-19.76558594 24.11041016 -19.76945313 25.03917969 -19.7734375 25.99609375 C-19.78165527 26.84743896 -19.78987305 27.69878418 -19.79833984 28.57592773 C-19.50066463 30.9702392 -19.50066463 30.9702392 -17.43603516 32.56274414 C-14.03989875 34.56145905 -11.60592298 35.12796902 -7.75 34.1875 C-3.77702447 31.94633432 -1.74159226 29.09977678 -0.3125 24.8125 C0.20219009 18.50754634 0.30819804 13.24354707 -3.3125 7.8125 C-7.91993236 3.20506764 -11.99720567 5.10470855 -17.3125 7.8125 Z " fill="#000000" transform="translate(216.3125,197.1875)"/>
<path d="M0 0 C5.24731297 3.12820581 8.35472644 6.69931609 10.625 12.375 C11.94266862 19.88571115 11.54350106 26.01982508 8.25 32.9375 C4.86988794 37.25653207 1.47256867 39.31079828 -3.75 40.9375 C-10.0714079 41.68059626 -15.12585623 41.13554254 -20.75 37.9375 C-26.0082227 33.75482286 -28.2714551 29.06085263 -29.03515625 22.48046875 C-29.28794815 15.32535883 -28.00035775 9.75044719 -23.5 4.125 C-16.21418621 -1.6705337 -8.76625251 -2.48377154 0 0 Z M-14.75 6.9375 C-19.62775455 12.35722728 -20.08586657 15.78995663 -20.04296875 22.9453125 C-19.54452857 28.03604817 -17.30934802 30.37815198 -13.75 33.9375 C-10.55952804 34.78829252 -8.35112402 35.08062477 -5.125 34.3125 C-1.20373 32.04229105 0.83014413 29.19706762 2.25 24.9375 C2.88381008 17.85589118 2.18385437 12.98901318 -2.0625 7.125 C-6.21875794 4.2002259 -10.49512952 4.47415394 -14.75 6.9375 Z " fill="#000000" transform="translate(105.75,197.0625)"/>
<path d="M0 0 C3.77702297 2.63513231 6.60374735 5.7074947 8.6875 9.875 C8.6875 13.175 8.6875 16.475 8.6875 19.875 C-0.5525 19.875 -9.7925 19.875 -19.3125 19.875 C-16.67479223 30.36879099 -16.67479223 30.36879099 -12.0625 33.1875 C-8.13028177 33.90840667 -6.03119006 33.66880428 -2.3125 32.4921875 C0.65208166 31.57733613 3.61380595 31.25921176 6.6875 30.875 C7.3475 32.195 8.0075 33.515 8.6875 34.875 C2.90956007 39.97318229 -2.21563923 41.32933987 -9.7890625 41.11328125 C-14.76083486 40.64381049 -18.5804399 39.68630468 -22.10546875 36 C-27.93115617 28.47227089 -28.16049824 21.12588984 -27.3125 11.875 C-25.31539789 6.09029045 -21.66288951 2.78282038 -16.3125 -0.125 C-10.91330143 -1.92473286 -5.37692735 -1.82612627 0 0 Z M-15.3125 7.875 C-17.90377153 10.64497991 -18.35883432 12.06033729 -19.3125 15.875 C-12.3825 15.875 -5.4525 15.875 1.6875 15.875 C0.41140184 9.32947044 0.41140184 9.32947044 -2.125 7 C-7.42211172 4.27577112 -10.23921548 4.67662498 -15.3125 7.875 Z " fill="#000000" transform="translate(463.3125,197.125)"/>
<path d="M0 0 C3.77702297 2.63513231 6.60374735 5.7074947 8.6875 9.875 C8.6875 13.175 8.6875 16.475 8.6875 19.875 C-0.5525 19.875 -9.7925 19.875 -19.3125 19.875 C-16.67479223 30.36879099 -16.67479223 30.36879099 -12.0625 33.1875 C-8.13028177 33.90840667 -6.03119006 33.66880428 -2.3125 32.4921875 C0.65208166 31.57733613 3.61380595 31.25921176 6.6875 30.875 C7.3475 32.195 8.0075 33.515 8.6875 34.875 C2.90956007 39.97318229 -2.21563923 41.32933987 -9.7890625 41.11328125 C-14.76083486 40.64381049 -18.5804399 39.68630468 -22.10546875 36 C-27.93115617 28.47227089 -28.16049824 21.12588984 -27.3125 11.875 C-25.31539789 6.09029045 -21.66288951 2.78282038 -16.3125 -0.125 C-10.91330143 -1.92473286 -5.37692735 -1.82612627 0 0 Z M-15.3125 7.875 C-17.90377153 10.64497991 -18.35883432 12.06033729 -19.3125 15.875 C-12.3825 15.875 -5.4525 15.875 1.6875 15.875 C0.41140184 9.32947044 0.41140184 9.32947044 -2.125 7 C-7.42211172 4.27577112 -10.23921548 4.67662498 -15.3125 7.875 Z " fill="#000000" transform="translate(358.3125,197.125)"/>
<path d="M0 0 C3.57468157 2.46823251 5.13317393 4.86400642 6.19311523 9.06323242 C6.68983603 12.22522954 6.73727276 15.22476563 6.72265625 18.42578125 C6.71943359 19.67294922 6.71621094 20.92011719 6.71289062 22.20507812 C6.70032227 24.14543945 6.70032227 24.14543945 6.6875 26.125 C6.68298828 27.43791016 6.67847656 28.75082031 6.67382812 30.10351562 C6.66205949 33.3398901 6.6456176 36.57617178 6.625 39.8125 C3.655 39.8125 0.685 39.8125 -2.375 39.8125 C-2.40005615 38.95495117 -2.4251123 38.09740234 -2.45092773 37.21386719 C-2.54623412 34.0231563 -2.64545751 30.83259781 -2.74731445 27.64208984 C-2.7905455 26.26290622 -2.83222866 24.88367315 -2.87231445 23.50439453 C-2.93030403 21.51843062 -2.99437723 19.53264731 -3.05859375 17.546875 C-3.09525146 16.35288086 -3.13190918 15.15888672 -3.16967773 13.92871094 C-3.33708994 11.38786745 -3.63817859 9.2353576 -4.375 6.8125 C-9.65669261 5.39546052 -12.56982636 6.31750599 -17.375 8.8125 C-20.16677569 11.60427569 -19.68713484 13.44433572 -19.7890625 17.3515625 C-19.82773437 18.65351563 -19.86640625 19.95546875 -19.90625 21.296875 C-19.93770763 22.67707862 -19.96895491 24.05728704 -20 25.4375 C-20.03817934 26.82554541 -20.07723105 28.21356711 -20.1171875 29.6015625 C-20.21172943 33.00507185 -20.29727897 36.40857165 -20.375 39.8125 C-23.015 39.8125 -25.655 39.8125 -28.375 39.8125 C-28.375 26.6125 -28.375 13.4125 -28.375 -0.1875 C-26.065 -0.1875 -23.755 -0.1875 -21.375 -0.1875 C-20.715 0.8025 -20.055 1.7925 -19.375 2.8125 C-18.776875 2.338125 -18.17875 1.86375 -17.5625 1.375 C-12.31318723 -2.37450912 -5.87929349 -2.0686403 0 0 Z " fill="#000000" transform="translate(403.375,197.1875)"/>
<path d="M0 0 C1.98 0 3.96 0 6 0 C6 4.62 6 9.24 6 14 C9.96 14 13.92 14 18 14 C18 15.98 18 17.96 18 20 C14.04 20 10.08 20 6 20 C6.14029459 24.12525788 6.28697311 28.25011392 6.4375 32.375 C6.47681641 33.550625 6.51613281 34.72625 6.55664062 35.9375 C6.61948242 37.61972656 6.61948242 37.61972656 6.68359375 39.3359375 C6.72025146 40.37282715 6.75690918 41.4097168 6.79467773 42.47802734 C6.84164223 44.99425166 6.84164223 44.99425166 8 47 C10.97 47 13.94 47 17 47 C17.66 48.65 18.32 50.3 19 52 C14.03937772 55.05269064 9.70702657 55.97744654 4 55 C1.12970131 53.20606332 -0.49131638 52.01736724 -2 49 C-2.08559118 46.82175039 -2.10713412 44.64084745 -2.09765625 42.4609375 C-2.09282227 40.50800781 -2.09282227 40.50800781 -2.08789062 38.515625 C-2.07953466 37.13541601 -2.07106971 35.75520768 -2.0625 34.375 C-2.05748501 32.98698074 -2.0529221 31.59895978 -2.04882812 30.2109375 C-2.03700976 26.80724868 -2.02053434 23.40364561 -2 20 C-2.969375 20.020625 -3.93875 20.04125 -4.9375 20.0625 C-8 20 -8 20 -9 19 C-9.04063832 17.33382885 -9.042721 15.66611905 -9 14 C-6.69 14 -4.38 14 -2 14 C-1.93941406 13.24074219 -1.87882813 12.48148438 -1.81640625 11.69921875 C-1.73261719 10.70535156 -1.64882812 9.71148437 -1.5625 8.6875 C-1.48128906 7.70136719 -1.40007812 6.71523437 -1.31640625 5.69921875 C-1 3 -1 3 0 0 Z " fill="#000000" transform="translate(236,183)"/>
<path d="M0 0 C1.051875 -0.00386719 1.051875 -0.00386719 2.125 -0.0078125 C4 0.125 4 0.125 6 1.125 C5.67 3.765 5.34 6.405 5 9.125 C4.40832031 9.07859375 3.81664063 9.0321875 3.20703125 8.984375 C-1.01985618 8.79130347 -3.3248392 8.7030245 -7 11 C-10.16625615 14.36414716 -10.16221801 16.47027285 -10.31640625 21.0078125 C-10.35830078 22.17441406 -10.40019531 23.34101563 -10.44335938 24.54296875 C-10.50233398 26.37794922 -10.50233398 26.37794922 -10.5625 28.25 C-10.60568359 29.48105469 -10.64886719 30.71210938 -10.69335938 31.98046875 C-10.79968704 35.02852853 -10.90171781 38.0766719 -11 41.125 C-13.97 41.125 -16.94 41.125 -20 41.125 C-20 27.925 -20 14.725 -20 1.125 C-17.36 1.125 -14.72 1.125 -12 1.125 C-11.67 2.445 -11.34 3.765 -11 5.125 C-10.21625 4.485625 -9.4325 3.84625 -8.625 3.1875 C-5.43702606 0.68266333 -3.95688983 -0.01454739 0 0 Z " fill="#000000" transform="translate(68,195.875)"/>
<path d="M0 0 C2.97 0 5.94 0 9 0 C9 13.2 9 26.4 9 40 C6.03 40 3.06 40 0 40 C0 26.8 0 13.6 0 0 Z " fill="#000000" transform="translate(419,197)"/>
<path d="M0 0 C4.65853418 2.81678811 7.91750143 5.46691386 11 10 C11.6875 13.0625 11.6875 13.0625 11 16 C6.76188995 20.56411852 1.72564502 22.72246565 -4 25 C-4.37851209 30.93002267 -3.10575375 35.47239641 -1 41 C-3.1875 41 -3.1875 41 -6 40 C-10.56134009 34.36466016 -12.59569265 28.6790321 -12.54296875 21.4453125 C-12 19 -12 19 -10.42578125 17.3046875 C-6.55652214 14.8431017 -2.42183359 13.21600424 2 12 C1.34 8.04 0.68 4.08 0 0 Z " fill="#000000" transform="translate(116,3)"/>
<path d="M0 0 C3.5 0.25 3.5 0.25 5.5 2.25 C5.75 5.25 5.75 5.25 5.5 8.25 C3.5 10.25 3.5 10.25 0 10.5 C-3.5 10.25 -3.5 10.25 -5.5 8.25 C-5.75 5.25 -5.75 5.25 -5.5 2.25 C-3.5 0.25 -3.5 0.25 0 0 Z " fill="#000000" transform="translate(423.5,178.75)"/>
<path d="" fill="#000000" transform="translate(0,0)"/>
</svg>
